<?xml version="1.0" encoding="UTF-8" standalone="no"?><!DOCTYPE svg PUBLIC "-//W3C//DTD SVG 1.1//EN" "http://www.w3.org/Graphics/SVG/1.1/DTD/svg11.dtd"><svg width="100%" height="100%" viewBox="0 0 1046 553" version="1.1" xmlns="http://www.w3.org/2000/svg" xmlns:xlink="http://www.w3.org/1999/xlink" xml:space="preserve" xmlns:serif="http://www.serif.com/" style="fill-rule:evenodd;clip-rule:evenodd;stroke-miterlimit:10;"><g id="Layer-1" serif:id="Layer 1"><path d="M313.078,343.872l-113.471,-0" style="fill:none;fill-rule:nonzero;stroke:#2f7fb8;stroke-width:3.42px;"/><path d="M301.754,329.894l-2.332,2.503l12.345,11.471l-12.345,11.475l2.332,2.503l15.031,-13.978l-15.031,-13.974Z" style="fill:#2f7fb8;fill-rule:nonzero;"/><path d="M353.5,65.086l-225.895,0" style="fill:none;fill-rule:nonzero;stroke:#2f7fb8;stroke-width:3.42px;"/><path d="M342.175,51.109l-2.331,2.503l12.344,11.471l-12.344,11.475l2.331,2.503l15.031,-13.978l-15.031,-13.974Z" style="fill:#2f7fb8;fill-rule:nonzero;"/><path d="M756.153,299.182l-225.265,0l-0,58.72" style="fill:none;fill-rule:nonzero;stroke:#2f7fb8;stroke-width:3.42px;"/><path d="M744.829,285.204l-2.333,2.503l12.345,11.472l-12.345,11.474l2.332,2.504l15.03,-13.978l-15.03,-13.975Z" style="fill:#2f7fb8;fill-rule:nonzero;"/><path d="M666.617,440.063l-135.729,0l-0,-82.161" style="fill:none;fill-rule:nonzero;stroke:#2f7fb8;stroke-width:3.42px;"/><path d="M655.292,426.086l-2.331,2.503l12.344,11.471l-12.344,11.475l2.331,2.503l15.031,-13.978l-15.031,-13.974Z" style="fill:#2f7fb8;fill-rule:nonzero;"/><path d="M999.126,286.542l-0.013,-2.848" style="fill:none;fill-rule:nonzero;stroke:#808080;stroke-width:3.42px;"/><path d="M999.087,278.114l-0.3,-64.169" style="fill:none;fill-rule:nonzero;stroke:#808080;stroke-width:3.42px;stroke-dasharray:5.58,5.58;"/><path d="M998.775,211.155l-0.014,-2.848l-2.847,-0" style="fill:none;fill-rule:nonzero;stroke:#808080;stroke-width:3.42px;"/><path d="M990.253,208.306l-574.512,0" style="fill:none;fill-rule:nonzero;stroke:#808080;stroke-width:3.42px;stroke-dasharray:5.66,5.66;"/><path d="M412.911,208.306l-2.849,0" style="fill:none;fill-rule:nonzero;stroke:#808080;stroke-width:3.42px;"/><path d="M1013.05,275.152l-2.514,-2.319l-11.414,12.397l-11.531,-12.29l-2.492,2.342l14.047,14.966l13.904,-15.096Z" style="fill:#808080;fill-rule:nonzero;"/><g opacity="0.5"><g><clipPath id="_clip1"><rect x="127.911" y="128.379" width="282.155" height="161.869" clip-rule="nonzero"/></clipPath><g clip-path="url(#_clip1)"><path d="M141.885,286.542l0,-78.235l266.472,-0l0,-79.928" style="fill:none;fill-rule:nonzero;stroke:#ff931e;stroke-width:3.42px;"/><path d="M155.863,275.217l-2.503,-2.331l-11.472,12.344l-11.474,-12.344l-2.503,2.331l13.977,15.031l13.975,-15.031Z" style="fill:#ff931e;fill-rule:nonzero;"/></g></g></g><path d="M916.763,468.144l-232.64,-0c-1.657,-0 -3,-1.343 -3,-3l0,-50.161c0,-1.657 1.343,-3 3,-3l232.64,-0c1.656,-0 3,1.343 3,3l0,50.161c0,1.657 -1.344,3 -3,3Z" style="fill:none;fill-rule:nonzero;stroke:#939393;stroke-width:2.44px;"/><text x="150.327px" y="49.811px" style="font-family:'Roboto-Regular', 'Roboto';font-size:18.228px;">sets `desir<tspan x="234.671px " y="49.811px ">e</tspan>d_capacity`</text><text x="591.708px" y="193.116px" style="font-family:'Roboto-Regular', 'Roboto';font-size:18.228px;">puts EC2 in `T<tspan x="703.485px " y="193.116px ">e</tspan>rminating:W<tspan x="810.656px " y="193.116px ">a</tspan>it` state</text><text x="163.597px" y="193.025px" style="font-family:'Roboto-Regular', 'Roboto';font-size:18.228px;">sends lif<tspan x="231.889px " y="193.025px ">e</tspan>cy<tspan x="259.601px " y="193.025px ">c</tspan>le action ev<tspan x="360.834px " y="193.025px ">e</tspan>nt</text><text x="583.542px" y="284.09px" style="font-family:'Roboto-Regular', 'Roboto';font-size:18.228px;">per<tspan x="609.721px " y="284.09px ">f</tspan>orms backup</text><text x="541.563px" y="428.598px" style="font-family:'Roboto-Regular', 'Roboto';font-size:15.949px;">calls A<tspan x="588.376px " y="428.598px ">W</tspan>S API</text><text x="798.825px" y="530.472px" style="font-family:'Roboto-Regular', 'Roboto';font-size:15.376px;">puts EC2 in `T<tspan x="893.121px " y="530.472px ">e</tspan>rminated` state</text><g transform="matrix(1,0,-0.176331,1,0,0)"><text x="777.886px" y="445.069px" style="font-family:'Roboto-Regular', 'Roboto';font-size:18.228px;">complete-lif<tspan x="873.711px " y="445.069px ">e</tspan>cy<tspan x="901.418px " y="445.069px ">c</tspan>le-action</text></g><g><text x="221.979px" y="90.149px" style="font-family:'Roboto-Regular', 'Roboto';font-size:18.228px;">t<tspan x="227.754px " y="90.149px ">o</tspan> `0`</text><text x="17.075px" y="117.437px" style="font-family:'Roboto-Regular', 'Roboto';font-size:27.341px;">Lambda</text></g><text x="382.842px" y="116.976px" style="font-family:'Roboto-Regular', 'Roboto';font-size:27.341px;">ASG</text><text x="80.604px" y="401.856px" style="font-family:'Roboto-Regular', 'Roboto';font-size:22.784px;">E<tspan x="93.267px 104.161px " y="401.856px 401.856px ">ve</tspan>ntBridge</text><text x="974.173px" y="404.48px" style="font-family:'Roboto-Regular', 'Roboto';font-size:27.341px;">EC2</text><text x="787.585px" y="371.573px" style="font-family:'Roboto-Regular', 'Roboto';font-size:22.784px;">S3</text><g><text x="325.817px" y="388.939px" style="font-family:'Roboto-Regular', 'Roboto';font-size:22.784px;">Systems Manager</text><text x="344.82px" y="416.283px" style="font-family:'Roboto-Regular', 'Roboto';font-size:22.784px;">Run Command</text></g><rect x="36.391" y="18.534" width="61.308" height="61.308" style="fill:url(#_Linear2);"/><path d="M86.968,59.917l-3.86,-0l-15.098,-31.749c-0.127,-0.267 -0.397,-0.438 -0.695,-0.438l-13.377,-0c-0.423,-0 -0.767,0.343 -0.768,0.766l-0.008,9.196c-0,0.204 0.08,0.399 0.225,0.543c0.143,0.144 0.339,0.224 0.543,0.224l6.47,-0l15.168,31.75c0.128,0.267 0.397,0.437 0.693,0.437l10.707,-0c0.425,-0 0.768,-0.343 0.768,-0.766l-0,-9.196c-0,-0.423 -0.343,-0.767 -0.768,-0.767m-0.768,9.196l-9.454,-0l-15.168,-31.75c-0.127,-0.266 -0.397,-0.436 -0.693,-0.436l-6.186,-0l0.007,-7.664l12.124,-0l15.097,31.749c0.127,0.267 0.398,0.438 0.694,0.438l3.579,-0l-0,7.663Zm-26.65,-24.099c-0.129,-0.264 -0.398,-0.432 -0.692,-0.432l-0.002,-0c-0.296,0.001 -0.565,0.17 -0.691,0.436l-11.737,24.531c-0.113,0.238 -0.097,0.517 0.044,0.74c0.14,0.222 0.386,0.357 0.649,0.357l11.22,-0c0.297,-0 0.566,-0.171 0.694,-0.438l6.142,-12.952c0.1,-0.21 0.099,-0.452 -0.003,-0.661l-5.624,-11.581Zm-1.696,24.099l-9.515,-0l10.524,-21.997l4.769,9.817l-5.778,12.18Z" style="fill:#fff;"/><rect x="377.767" y="18.994" width="61.181" height="61.181" style="fill:url(#_Linear3);"/><path d="M403.923,35.155l-1.074,-1.077l5.89,-5.906l5.891,5.906l-1.073,1.077l-4.058,-4.069l0,8.509l-1.518,0l0,-8.509l-4.058,4.069Zm5.576,32.929l0,-7.841l-1.518,0l0,7.841l-4.058,-4.069l-1.074,1.076l5.89,5.907l5.891,-5.907l-1.073,-1.076l-4.058,4.069Zm6.717,-23.828l1.634,0l0,1.522l-1.519,0l0,2.284l1.519,0l0,1.523l-1.519,0l0,2.284l1.519,0l0,1.522l-1.519,0l0,2.285l1.519,0l0,1.522l-1.634,0c-0.128,0.286 -0.357,0.517 -0.644,0.646l0,1.638l-1.518,0l0,-1.523l-2.277,0l0,1.523l-1.519,0l0,-1.523l-2.277,0l0,1.523l-1.519,0l0,-1.523l-2.277,0l0,1.523l-1.519,0l0,-1.638c-0.286,-0.129 -0.515,-0.36 -0.644,-0.646l-1.633,0l0,-1.522l1.518,0l0,-2.285l-1.518,0l0,-1.522l1.518,0l0,-2.284l-1.518,0l0,-1.523l1.518,0l0,-2.284l-1.518,0l0,-1.522l1.633,0c0.129,-0.287 0.358,-0.518 0.644,-0.647l0,-1.637l1.519,0l0,1.522l2.277,0l0,-1.522l1.519,0l0,1.522l2.277,0l0,-1.522l1.519,0l0,1.522l2.277,0l0,-1.522l1.518,0l0,1.637c0.287,0.129 0.516,0.36 0.644,0.647m-12.791,12.181l11.389,0l0,-11.42l-11.389,0l0,11.42Zm-11.85,-11.891l4.267,4.277l-8.134,0l0,1.523l7.717,0l-3.85,3.86l1.075,1.076l5.889,-5.906l-5.889,-5.907l-1.075,1.077Zm38.196,4.277l-8.694,0l4.266,-4.277l-1.073,-1.077l-5.891,5.907l5.891,5.906l1.073,-1.076l-3.849,-3.86l8.277,0l0,-1.523Z" style="fill:#fff;"/><rect x="110.976" y="306.498" width="61.181" height="61.181" style="fill:url(#_Linear4);"/><path d="M129.695,349.522c1.21,-0.811 2.01,-2.194 2.01,-3.763c0,-2.491 -2.016,-4.519 -4.494,-4.519c-0.718,-0 -1.394,0.175 -1.996,0.477l-2.658,-4.629l4.404,-7.669l-1.318,-0.765l-4.623,8.052c-0.136,0.237 -0.136,0.528 0,0.765l2.961,5.155c-0.782,0.813 -1.265,1.917 -1.265,3.133c0,2.492 2.017,4.519 4.495,4.519c0.374,-0 0.735,-0.051 1.082,-0.138l2.426,4.225c0.137,0.237 0.388,0.383 0.659,0.383l9.428,-0l0,-1.53l-8.989,-0l-2.122,-3.696Zm-2.484,-0.773c-1.64,-0 -2.974,-1.341 -2.974,-2.99c0,-1.648 1.334,-2.989 2.974,-2.989c1.639,-0 2.973,1.341 2.973,2.989c0,1.649 -1.334,2.99 -2.973,2.99m34.902,-12.043l-2.887,-5.028c1.098,-0.825 1.812,-2.137 1.812,-3.617c0,-2.492 -2.015,-4.519 -4.494,-4.519c-0.63,-0 -1.231,0.132 -1.776,0.37l-2.354,-4.1c-0.136,-0.236 -0.387,-0.383 -0.659,-0.383l-9.428,-0l0,1.53l8.99,-0l2.177,3.793c-0.885,0.826 -1.443,2.001 -1.443,3.309c0,2.491 2.016,4.519 4.493,4.519c0.462,-0 0.908,-0.072 1.328,-0.203l2.705,4.711l-3.798,6.614l1.317,0.765l4.017,-6.996c0.136,-0.237 0.136,-0.528 0,-0.765m-5.569,-5.656c-1.639,-0 -2.972,-1.34 -2.972,-2.989c0,-1.649 1.333,-2.99 2.972,-2.99c1.639,-0 2.973,1.341 2.973,2.99c0,1.649 -1.334,2.989 -2.973,2.989m-4.533,18.414c-0.565,-0 -1.103,0.109 -1.601,0.301l-3.23,-5.48l-0.17,0.102l3.97,-6.916c0.136,-0.237 0.136,-0.528 0,-0.765l-4.391,-7.647c-0.136,-0.238 -0.387,-0.383 -0.658,-0.383l-7.991,-0l0.031,-0.018l-2.961,-5.026c0.967,-0.829 1.584,-2.062 1.584,-3.438c0,-2.491 -2.016,-4.519 -4.494,-4.519c-2.478,-0 -4.494,2.028 -4.494,4.519c0,2.492 2.016,4.519 4.494,4.519c0.565,-0 1.103,-0.109 1.601,-0.301l2.765,4.69l-4.367,7.604c-0.135,0.237 -0.135,0.528 0,0.765l4.392,7.648c0.136,0.236 0.387,0.382 0.658,0.382l8.782,-0c0.063,-0 0.124,-0.01 0.184,-0.024l2.986,5.068c-0.968,0.83 -1.584,2.062 -1.584,3.438c0,2.492 2.015,4.519 4.494,4.519c2.478,-0 4.494,-2.027 4.494,-4.519c0,-2.492 -2.016,-4.519 -4.494,-4.519m-19.911,-26.28c-1.639,-0 -2.973,-1.341 -2.973,-2.99c0,-1.649 1.334,-2.989 2.973,-2.989c1.639,-0 2.973,1.34 2.973,2.989c0,1.649 -1.334,2.99 -2.973,2.99m13.392,20.788l-7.904,-0l-3.952,-6.884l3.952,-6.882l7.904,-0l3.952,6.882l-3.952,6.884Zm6.519,13.001c-1.639,-0 -2.973,-1.341 -2.973,-2.99c0,-1.649 1.334,-2.989 2.973,-2.989c1.639,-0 2.973,1.34 2.973,2.989c0,1.649 -1.334,2.99 -2.973,2.99" style="fill:#fff;"/><rect x="968.553" y="306.498" width="61.182" height="61.181" style="fill:url(#_Linear5);"/><path d="M1020.56,317.299l-0,20.459c-0,0.895 -0.729,1.624 -1.624,1.624l-4.493,0l0,-1.529l4.493,0c0.052,0 0.095,-0.043 0.095,-0.095l-0,-20.459c-0,-0.052 -0.043,-0.095 -0.095,-0.095l-20.459,0c-0.052,0 -0.095,0.043 -0.095,0.095l-0,4.494l-1.529,0l-0,-4.494c-0,-0.896 0.728,-1.624 1.624,-1.624l20.459,0c0.895,0 1.624,0.728 1.624,1.624m-20.648,39.578c-0,0.052 -0.043,0.095 -0.095,0.095l-20.459,0c-0.052,0 -0.095,-0.043 -0.095,-0.095l-0,-20.459c-0,-0.052 0.043,-0.095 0.095,-0.095l4.494,0l-0,-1.529l-4.494,0c-0.896,0 -1.624,0.729 -1.624,1.624l-0,20.459c-0,0.896 0.728,1.625 1.624,1.625l20.459,0c0.895,0 1.625,-0.729 1.625,-1.625l-0,-3.729l-1.53,0l-0,3.729Zm9.942,-28.966l3.059,0l-0,1.53l-3.059,0l-0,3.059l3.059,0l-0,1.529l-3.059,0l-0,2.294l3.059,0l-0,1.53l-3.059,0l-0,3.059l3.059,0l-0,1.53l-3.059,0l-0,3.059l3.059,0l-0,1.529l-3.059,0l-0,0.104c-0,0.787 -0.64,1.426 -1.426,1.426l-0.103,0l-0,3.059l-1.531,0l-0,-3.059l-3.058,0l-0,3.059l-1.53,0l-0,-3.059l-2.294,0l-0,3.059l-1.53,0l-0,-3.059l-3.058,0l-0,3.059l-1.531,0l-0,-3.059l-3.058,0l-0,3.059l-1.529,0l-0,-3.059l-0.105,0c-0.786,0 -1.426,-0.639 -1.426,-1.426l-0,-0.104l-2.294,0l-0,-1.529l2.294,0l-0,-3.059l-2.294,0l-0,-1.53l2.294,0l-0,-3.059l-2.294,0l-0,-1.53l2.294,0l-0,-2.294l-2.294,0l-0,-1.529l2.294,0l-0,-3.059l-2.294,0l-0,-1.53l2.294,0l-0,-0.104c-0,-0.786 0.64,-1.425 1.426,-1.425l0.105,0l-0,-3.06l1.529,0l-0,3.06l3.058,0l-0,-3.06l1.531,0l-0,3.06l3.058,0l-0,-3.06l1.53,0l-0,3.06l2.294,0l-0,-3.06l1.53,0l-0,3.06l3.058,0l-0,-3.06l1.531,0l-0,3.06l0.103,0c0.786,0 1.426,0.639 1.426,1.425l-0,0.104Zm-20.648,19.119l19.119,0l-0,-19.119l-19.119,0l-0,19.119Z" style="fill:#fff;"/><rect x="769.852" y="276.877" width="61.182" height="61.181" style="fill:url(#_Linear6);"/><path d="M818.797,292.554c0,-2.65 -7.597,-6.5 -19.501,-6.5c-11.905,-0 -19.502,3.85 -19.502,6.5l0.072,0.577l4.243,30.991c0.101,3.466 9.344,4.758 15.182,4.758c7.244,-0 14.94,-1.665 15.039,-4.756l1.832,-12.922c1.02,0.244 1.859,0.369 2.532,0.369c0.906,-0 1.517,-0.222 1.888,-0.663c0.305,-0.363 0.421,-0.802 0.333,-1.269c-0.198,-1.059 -1.454,-2.2 -4.014,-3.66l1.818,-12.819l0.078,-0.606Zm-37.474,-0.017c0.056,-1.006 5.839,-4.954 17.973,-4.954c12.132,-0 17.916,3.947 17.972,4.954l0,0.344c-0.666,2.256 -8.16,4.644 -17.972,4.644c-9.829,-0 -17.328,-2.395 -17.973,-4.655l0,-0.333Zm33.569,16.729c-4.681,-1.416 -11.199,-4.406 -13.837,-5.653c0,-0.011 0.004,-0.02 0.004,-0.031c0,-1.013 -0.825,-1.838 -1.839,-1.838c-1.013,-0 -1.837,0.825 -1.837,1.838c0,1.013 0.824,1.838 1.837,1.838c0.445,-0 0.848,-0.166 1.168,-0.43c3.103,1.469 9.571,4.416 14.285,5.807l-1.864,13.159c-0.005,0.036 -0.008,0.072 -0.008,0.108c0,1.158 -5.129,3.287 -13.51,3.287c-8.47,-0 -13.653,-2.129 -13.653,-3.287c0,-0.035 -0.003,-0.07 -0.007,-0.104l-3.896,-28.455c3.372,2.321 10.625,3.549 17.561,3.549c6.925,-0 14.165,-1.223 17.544,-3.538l-1.948,13.75Zm1.485,0.413l0.294,-2.068c2.708,1.622 2.743,2.292 2.742,2.311c-0.004,0.004 -0.466,0.389 -3.036,-0.243" style="fill:#fff;"/><rect x="389.531" y="294.24" width="61.18" height="61.181" style="fill:url(#_Linear7);"/><path d="M440.726,329.129l-1.53,0.087c-0.249,-0.876 -0.598,-1.717 -1.042,-2.515l1.144,-1.021c0.157,-0.14 0.249,-0.338 0.255,-0.549c0.007,-0.21 -0.074,-0.414 -0.223,-0.562l-3.655,-3.655c-0.148,-0.149 -0.36,-0.234 -0.561,-0.223c-0.211,0.006 -0.409,0.098 -0.55,0.255l-1.025,1.149c-0.795,-0.444 -1.636,-0.792 -2.51,-1.041l0.087,-1.536c0.012,-0.211 -0.063,-0.416 -0.208,-0.569c-0.144,-0.153 -0.345,-0.24 -0.555,-0.24l-5.169,-0c-0.21,-0 -0.411,0.087 -0.555,0.24c-0.145,0.153 -0.22,0.358 -0.208,0.569l0.087,1.534c-0.875,0.249 -1.717,0.598 -2.511,1.04l-1.024,-1.146c-0.14,-0.157 -0.338,-0.249 -0.549,-0.255c-0.217,-0.01 -0.414,0.074 -0.562,0.223l-3.655,3.655c-0.149,0.148 -0.23,0.352 -0.223,0.562c0.006,0.21 0.098,0.409 0.255,0.549l1.147,1.024c-0.444,0.797 -0.794,1.637 -1.043,2.512l-1.532,-0.087c-0.205,-0.014 -0.416,0.063 -0.568,0.208c-0.154,0.144 -0.241,0.345 -0.241,0.556l-0,5.169c-0,0.21 0.087,0.411 0.241,0.556c0.152,0.143 0.364,0.219 0.568,0.207l1.526,-0.087c0.249,0.878 0.598,1.721 1.042,2.518l-1.14,1.017c-0.157,0.14 -0.249,0.339 -0.255,0.549c-0.007,0.21 0.074,0.415 0.223,0.563l3.655,3.655c0.148,0.149 0.364,0.231 0.562,0.224c0.211,-0.006 0.409,-0.099 0.549,-0.256l1.017,-1.141c0.798,0.446 1.641,0.796 2.517,1.046l-0.086,1.524c-0.012,0.209 0.063,0.415 0.208,0.568c0.144,0.153 0.345,0.24 0.555,0.24l5.169,-0c0.21,-0 0.411,-0.087 0.556,-0.24c0.144,-0.153 0.219,-0.359 0.207,-0.568l-0.086,-1.523c0.878,-0.25 1.721,-0.599 2.518,-1.045l1.016,1.139c0.14,0.157 0.339,0.25 0.55,0.256c0.204,0.009 0.413,-0.075 0.561,-0.224l3.655,-3.655c0.149,-0.148 0.23,-0.353 0.223,-0.563c-0.006,-0.21 -0.098,-0.409 -0.256,-0.549l-1.141,-1.018c0.444,-0.798 0.793,-1.641 1.042,-2.517l1.528,0.087c0.206,0.012 0.416,-0.064 0.569,-0.207c0.153,-0.145 0.24,-0.346 0.24,-0.556l0,-5.169c0,-0.211 -0.087,-0.412 -0.24,-0.556c-0.153,-0.145 -0.362,-0.221 -0.569,-0.208m-0.721,5.123l-1.349,-0.078c-0.362,-0.019 -0.707,0.23 -0.789,0.596c-0.259,1.146 -0.708,2.232 -1.337,3.228c-0.2,0.317 -0.142,0.731 0.138,0.98l1.007,0.898l-2.509,2.51l-0.895,-1.004c-0.25,-0.281 -0.665,-0.337 -0.98,-0.138c-0.995,0.629 -2.082,1.079 -3.23,1.339c-0.364,0.082 -0.617,0.417 -0.595,0.79l0.076,1.342l-3.547,-0l0.076,-1.344c0.022,-0.373 -0.231,-0.707 -0.594,-0.79c-1.147,-0.259 -2.232,-0.71 -3.23,-1.339c-0.316,-0.2 -0.73,-0.143 -0.979,0.137l-0.897,1.006l-2.509,-2.509l1.006,-0.897c0.279,-0.249 0.337,-0.663 0.137,-0.979c-0.628,-0.996 -1.078,-2.082 -1.336,-3.23c-0.082,-0.366 -0.447,-0.615 -0.789,-0.596l-1.347,0.078l0,-3.549l1.351,0.077c0.356,0.02 0.706,-0.231 0.789,-0.595c0.26,-1.144 0.71,-2.228 1.339,-3.223c0.199,-0.317 0.141,-0.732 -0.138,-0.98l-1.012,-0.904l2.51,-2.509l0.902,1.012c0.25,0.278 0.664,0.336 0.978,0.137c0.995,-0.627 2.078,-1.076 3.225,-1.334c0.363,-0.083 0.616,-0.417 0.594,-0.791l-0.076,-1.354l3.547,-0l-0.076,1.356c-0.022,0.373 0.231,0.707 0.595,0.789c1.143,0.26 2.227,0.709 3.223,1.336c0.314,0.2 0.729,0.141 0.977,-0.137l0.905,-1.014l2.509,2.509l-1.01,0.902c-0.278,0.249 -0.337,0.663 -0.137,0.979c0.628,0.995 1.079,2.081 1.337,3.226c0.083,0.364 0.429,0.615 0.79,0.595l1.35,-0.077l0,3.549Zm-34.415,-4.07l6.883,-0l0,1.53l-6.883,-0c-0.96,-0 -1.985,-0.288 -2.743,-0.771c-1.545,-0.978 -4.14,-3.268 -4.14,-7.607c0,-5.263 3.568,-7.194 5.645,-7.871l-0.042,-0.701c-0.001,-4.334 2.866,-8.779 6.669,-10.383c4.453,-1.893 9.17,-0.955 12.618,2.509c1.069,1.072 1.95,2.379 2.625,3.896c1.355,-1.129 3.198,-1.515 4.911,-0.953c2.178,0.715 3.533,2.727 3.692,5.436c2.171,0.52 6.71,2.306 6.71,8.135c0,0.219 -0.009,0.429 -0.017,0.63l-1.529,-0.041c0.008,-0.204 0.016,-0.392 0.016,-0.589c0,-5.149 -4.25,-6.443 -6.077,-6.759c-0.207,-0.036 -0.389,-0.154 -0.505,-0.328c-0.115,-0.172 -0.156,-0.383 -0.113,-0.586c-0.022,-2.28 -0.986,-3.897 -2.653,-4.444c-1.494,-0.492 -3.135,0.05 -4.086,1.344c-0.168,0.228 -0.445,0.346 -0.728,0.303c-0.28,-0.04 -0.514,-0.233 -0.609,-0.5c-0.637,-1.792 -1.552,-3.294 -2.72,-4.463c-2.993,-3.007 -7.083,-3.821 -10.938,-2.181c-3.219,1.357 -5.738,5.279 -5.738,8.929l0.075,1.266c0.022,0.365 -0.218,0.695 -0.574,0.785c-1.905,0.485 -5.102,1.983 -5.102,6.566c0,3.425 1.865,5.325 3.43,6.316c0.516,0.329 1.252,0.532 1.923,0.532m26.767,-3.059l3.059,-0l0,1.529l-3.059,-0l0,1.53l-1.529,-0l0,-1.53l-9.942,-0l0,-1.529l9.942,-0l0,-0.765l1.529,-0l0,0.765Zm-3.823,4.589l6.882,-0l0,1.53l-6.882,-0l0,1.53l-1.531,-0l0,-1.53l-6.117,-0l0,-1.53l6.117,-0l0,-0.765l1.531,-0l0,0.765Zm-3.06,4.589l9.942,-0l0,1.53l-9.942,-0l0,1.53l-1.529,-0l0,-1.53l-3.059,-0l0,-1.53l3.059,-0l0,-0.764l1.529,-0l0,0.764Z" style="fill:#fff;"/><path d="M799.288,476.381l-0,2.848" style="fill:none;fill-rule:nonzero;stroke:#808080;stroke-width:3.42px;"/><path d="M799.288,484.432l-0,18.21" style="fill:none;fill-rule:nonzero;stroke:#808080;stroke-width:3.42px;stroke-dasharray:5.2,5.2;"/><path d="M799.288,505.243l-0,2.848l2.849,0" style="fill:none;fill-rule:nonzero;stroke:#808080;stroke-width:3.42px;"/><path d="M807.727,508.092l187.311,-0" style="fill:none;fill-rule:nonzero;stroke:#808080;stroke-width:3.42px;stroke-dasharray:5.59,5.59;"/><path d="M997.832,508.092l2.849,-0l0,-2.848" style="fill:none;fill-rule:nonzero;stroke:#808080;stroke-width:3.42px;"/><path d="M1000.68,499.749l0,-74.168" style="fill:none;fill-rule:nonzero;stroke:#808080;stroke-width:3.42px;stroke-dasharray:5.49,5.49;"/><path d="M1000.68,422.834l0,-2.848" style="fill:none;fill-rule:nonzero;stroke:#808080;stroke-width:3.42px;"/><path d="M1014.66,431.31l-2.503,2.332l-11.472,-12.345l-11.474,12.345l-2.503,-2.332l13.977,-15.031l13.975,15.031Z" style="fill:#808080;fill-rule:nonzero;"/><path d="M530.889,369.719l-17.918,0" style="fill:none;fill-rule:nonzero;stroke:#2f7fb8;stroke-width:3.42px;"/></g><defs><linearGradient id="_Linear2" x1="0" y1="0" x2="1" y2="0" gradientUnits="userSpaceOnUse" gradientTransform="matrix(61.308,-61.308,-61.308,-61.308,36.3904,79.842)"><stop offset="0" style="stop-color:#c8511b;stop-opacity:1"/><stop offset="1" style="stop-color:#f90;stop-opacity:1"/></linearGradient><linearGradient id="_Linear3" x1="0" y1="0" x2="1" y2="0" gradientUnits="userSpaceOnUse" gradientTransform="matrix(61.1812,-61.1812,-61.1812,-61.1812,377.767,80.1754)"><stop offset="0" style="stop-color:#c8511b;stop-opacity:1"/><stop offset="1" style="stop-color:#f90;stop-opacity:1"/></linearGradient><linearGradient id="_Linear4" x1="0" y1="0" x2="1" y2="0" gradientUnits="userSpaceOnUse" gradientTransform="matrix(61.1812,-61.1812,-61.1812,-61.1812,110.976,367.679)"><stop offset="0" style="stop-color:#b0084d;stop-opacity:1"/><stop offset="1" style="stop-color:#ff4f8b;stop-opacity:1"/></linearGradient><linearGradient id="_Linear5" x1="0" y1="0" x2="1" y2="0" gradientUnits="userSpaceOnUse" gradientTransform="matrix(61.1812,-61.1812,-61.1812,-61.1812,968.553,367.679)"><stop offset="0" style="stop-color:#c8511b;stop-opacity:1"/><stop offset="1" style="stop-color:#f90;stop-opacity:1"/></linearGradient><linearGradient id="_Linear6" x1="0" y1="0" x2="1" y2="0" gradientUnits="userSpaceOnUse" gradientTransform="matrix(61.1812,-61.1812,-61.1812,-61.1812,769.852,338.058)"><stop offset="0" style="stop-color:#1b660f;stop-opacity:1"/><stop offset="1" style="stop-color:#6cae3e;stop-opacity:1"/></linearGradient><linearGradient id="_Linear7" x1="0" y1="0" x2="1" y2="0" gradientUnits="userSpaceOnUse" gradientTransform="matrix(61.1812,-61.1812,-61.1812,-61.1812,389.53,355.422)"><stop offset="0" style="stop-color:#b0084d;stop-opacity:1"/><stop offset="1" style="stop-color:#ff4f8b;stop-opacity:1"/></linearGradient></defs></svg>