<?xml version="1.0" encoding="UTF-8" standalone="no"?><!DOCTYPE svg PUBLIC "-//W3C//DTD SVG 1.1//EN" "http://www.w3.org/Graphics/SVG/1.1/DTD/svg11.dtd"><svg width="100%" height="100%" viewBox="0 0 861 654" version="1.1" xmlns="http://www.w3.org/2000/svg" xmlns:xlink="http://www.w3.org/1999/xlink" xml:space="preserve" xmlns:serif="http://www.serif.com/" style="fill-rule:evenodd;clip-rule:evenodd;stroke-miterlimit:10;"><g id="Layer-1" serif:id="Layer 1"><path d="M60.317,333.677l0,-166.789" style="fill:none;fill-rule:nonzero;stroke:#2f7fb8;stroke-width:4.8px;"/><path d="M79.963,318.164l-3.519,-3.277l-16.126,17.351l-16.13,-17.351l-3.519,3.276l19.649,21.13l19.645,-21.13Z" style="fill:#2f7fb8;fill-rule:nonzero;"/><g transform="matrix(1,0,0,1,-6,3)"><text x="234.128px" y="308.888px" style="font-family:'Roboto-Regular', 'Roboto';font-size:16px;">Minimum capacity</text><text x="369.286px" y="308.888px" style="font-family:'Roboto-Regular', 'Roboto';font-size:16px;">—<tspan x="380.822px 383.829px " y="308.888px 308.888px "> 0</tspan></text><text x="234.128px" y="353.876px" style="font-family:'Roboto-Regular', 'Roboto';font-size:16px;">Maximum capacity</text><text x="373.211px" y="353.876px" style="font-family:'Roboto-Regular', 'Roboto';font-size:16px;">—<tspan x="384.747px 387.756px " y="353.876px 353.876px "> 1</tspan></text><text x="234.128px" y="400.014px" style="font-family:'Roboto-Regular', 'Roboto';font-size:16px;">Desir<tspan x="270.501px " y="400.014px ">e</tspan>d capacity</text><text x="355.76px" y="400.014px" style="font-family:'Roboto-Regular', 'Roboto';font-size:16px;">—<tspan x="367.279px 370.271px " y="400.014px 400.014px "> 0</tspan></text><text x="381.274px" y="400.014px" style="font-family:'Roboto-Bold', 'Roboto';font-weight:700;font-size:16px;">/</text><text x="389.27px" y="400.014px" style="font-family:'Roboto-Regular', 'Roboto';font-size:16px;"><tspan x="389.27px " y="400.014px ">1</tspan></text></g><path d="M687.422,481.49l-496.666,0c-1.657,0 -3,-1.343 -3,-3l0,-318.053c0,-1.657 1.343,-3 3,-3l496.666,0c1.656,0 3,1.343 3,3l0,318.053c0,1.657 -1.344,3 -3,3Z" style="fill:none;fill-rule:nonzero;stroke:#969696;stroke-width:1.6px;"/><path d="M659.287,438.408l-181.391,0c-1.656,0 -3,-1.343 -3,-3l0,-233.367c0,-1.657 1.344,-3 3,-3l181.391,0c1.657,0 3,1.343 3,3l0,233.367c0,1.657 -1.343,3 -3,3Z" style="fill:none;fill-rule:nonzero;stroke:#969696;stroke-width:1.6px;"/><path d="M659.287,252.401l-181.391,0c-1.656,0 -3,-1.008 -3,-2.252l0,-48.618c0,-1.244 1.344,-2.253 3,-2.253l181.391,0c1.657,0 3,1.009 3,2.253l0,48.618c0,1.244 -1.343,2.252 -3,2.252Z" style="fill:none;fill-rule:nonzero;stroke:#969696;stroke-width:1.6px;"/><path d="M501.698,381.23l0,215.768l-441.381,-0l0,-111.41" style="fill:none;fill-rule:nonzero;stroke:#2f7fb8;stroke-width:4.8px;"/><path d="M79.963,500.096l-3.519,3.277l-16.126,-17.352l-16.13,17.352l-3.519,-3.277l19.649,-21.13l19.645,21.13Z" style="fill:#2f7fb8;fill-rule:nonzero;"/><text x="501.587px" y="232.59px" style="font-family:'Roboto-Regular', 'Roboto';font-size:18px;">Launch template</text><text x="249.644px" y="627.942px" style="font-family:'Roboto-Regular', 'Roboto';font-size:20px;">uses</text><path d="M802.692,134.026l-2.431,400.167l-423.185,-0.354l-0,-117.617" style="fill:none;fill-rule:nonzero;stroke:#fb9402;stroke-width:4.8px;"/><path d="M396.723,431.255l-3.519,3.277l-16.127,-17.352l-16.13,17.352l-3.519,-3.277l19.649,-21.13l19.646,21.13Z" style="fill:#fb9402;fill-rule:nonzero;"/><g transform="matrix(1,0,0,1,0,-6)"><text x="603.335px" y="566.129px" style="font-family:'Roboto-Regular', 'Roboto';font-size:18px;">updates ASG’<tspan x="709.749px " y="566.129px ">s</tspan></text><text x="595.823px" y="588.929px" style="font-family:'Roboto-Regular', 'Roboto';font-size:18px;">desir<tspan x="635.09px " y="588.929px ">e</tspan>d capacity</text></g><g transform="matrix(-3.24575e-17,1,-1,2.12131e-17,-13.4598,-10.9273)"><text x="207.683px" y="-86.482px" style="font-family:'Roboto-Regular', 'Roboto';font-size:20px;">pr<tspan x="225.488px " y="-86.482px ">e</tspan>-bak<tspan x="273.649px " y="-86.482px ">e</tspan>s</text></g><text x="517.679px" y="359.498px" style="font-family:'Roboto-Regular', 'Roboto';font-size:16.015px;">user data, cfn-init</text><g><text x="517.679px" y="307.402px" style="font-family:'Roboto-Regular', 'Roboto';font-size:16.015px;">instance type</text><text x="517.679px" y="333.447px" style="font-family:'Roboto-Regular', 'Roboto';font-size:16.015px;">st<tspan x="531.012px 540.145px 545.251px " y="333.447px 333.447px 333.447px ">ora</tspan>ge conﬁg</text></g><text x="38.752px" y="460.249px" style="font-family:'Roboto-Regular', 'Roboto';font-size:24px;">AMI</text><text x="517.678px" y="385.545px" style="font-family:'Roboto-Regular', 'Roboto';font-size:16.015px;">AMI ID</text><text x="316.449px" y="245.364px" style="font-family:'Roboto-Regular', 'Roboto';font-size:28.827px;">ASG</text><path d="M752.448,79.145l-95.287,0" style="fill:none;fill-rule:nonzero;stroke:#9d9d9d;stroke-width:1.6px;"/><path d="M662.136,72.596l1.093,1.173l-5.784,5.375l5.784,5.377l-1.093,1.173l-7.043,-6.55l7.043,-6.548Z" style="fill:#969696;fill-rule:nonzero;stroke:#969696;stroke-width:1px;stroke-linejoin:round;stroke-miterlimit:2;"/><path d="M752.448,79.145l-0,30.943l-95.287,-0" style="fill:none;fill-rule:nonzero;stroke:#9d9d9d;stroke-width:1.6px;"/><path d="M662.137,103.539l1.092,1.173l-5.784,5.375l5.784,5.377l-1.092,1.173l-7.044,-6.55l7.044,-6.548Z" style="fill:#969696;fill-rule:nonzero;stroke:#969696;stroke-width:1px;stroke-linejoin:round;stroke-miterlimit:2;"/><path d="M752.448,79.145l-0,-29.215l-95.287,0" style="fill:none;fill-rule:nonzero;stroke:#9d9d9d;stroke-width:1.6px;"/><path d="M662.137,43.381l1.092,1.173l-5.784,5.375l5.784,5.377l-1.092,1.173l-7.044,-6.55l7.044,-6.548Z" style="fill:#969696;fill-rule:nonzero;stroke:#969696;stroke-width:1px;stroke-linejoin:round;stroke-miterlimit:2;"/><path d="M48.672,119.162c0.286,0.062 0.578,0.096 0.871,0.102c0.348,-0 0.489,-0.165 0.489,-0.502l-0,-1.267c-0,-0.306 -0.121,-0.482 -0.482,-0.482c-0.32,0.01 -0.627,0.129 -0.87,0.337l-0.008,1.812Zm2.333,-0.42c0.096,0.632 -0.338,1.222 -0.97,1.318c-0.106,0.016 -0.214,0.017 -0.32,0.004c-0.344,-0.007 -0.687,-0.045 -1.023,-0.114l-0,1.533l-1.024,0.145l-0,-5.352l0.784,-0l0.091,0.318c0.361,-0.259 0.795,-0.396 1.238,-0.392c0.785,-0 1.208,0.45 1.208,1.297l0.016,1.243Zm-3.921,-1.627c-0.354,0.155 -0.696,0.336 -1.023,0.541l-0,2.423l-1.024,-0l-0,-3.803l0.89,-0l-0,0.392c0.319,-0.206 0.663,-0.371 1.023,-0.49l0.134,0.937Zm-4.451,-0.063c-0.521,-0 -0.725,0.224 -0.725,0.643l-0,1.024c-0,0.42 0.204,0.643 0.725,0.643c0.522,-0 0.726,-0.223 0.726,-0.643l-0,-1.032c-0,-0.458 -0.216,-0.686 -0.737,-0.686l0.011,0.051Zm-0,3.07c-1.34,-0 -1.697,-0.705 -1.697,-1.474l-0,-0.921c-0,-0.784 0.357,-1.475 1.697,-1.475c1.342,-0 1.698,0.706 1.698,1.475l-0,0.953c-0,0.737 -0.368,1.442 -1.709,1.442l0.011,-0Zm-5.512,-3.795c-0,-0.941 0.572,-1.482 1.901,-1.482c0.489,0.001 0.976,0.059 1.451,0.172l-0.114,0.839c-0.435,-0.097 -0.876,-0.158 -1.321,-0.184c-0.694,-0 -0.922,0.236 -0.922,0.784l-0,1.961c-0,0.541 0.224,0.784 0.922,0.784c0.439,-0.009 0.877,-0.054 1.31,-0.133l0.113,0.839c-0.475,0.114 -0.962,0.172 -1.451,0.172c-1.329,-0 -1.901,-0.541 -1.901,-1.482l0.012,-2.27Zm-1.761,3.713l-0,-3.764l1.023,-0l-0,3.744l-1.023,0.02Zm-0,-5.195l1.023,-0l-0,0.921l-1.023,-0l-0,-0.921Zm-1.812,5.187l-0,-2.619c-0,-0.204 -0.09,-0.298 -0.317,-0.298c-0.359,0.038 -0.706,0.146 -1.023,0.318l-0,2.599l-1.012,-0l-0,-5.269l1.023,0.145l-0,1.643c0.447,-0.218 0.934,-0.34 1.432,-0.357c0.643,-0 0.878,0.439 0.878,1.105l-0,2.721l-0.981,0.012Zm-4.481,0.083c-0.458,-0.007 -0.912,-0.08 -1.349,-0.216l0.133,-0.717c0.384,0.105 0.779,0.161 1.176,0.164c0.432,-0 0.502,-0.09 0.502,-0.392c-0,-0.302 -0,-0.349 -0.686,-0.49c-0.953,-0.223 -1.023,-0.451 -1.023,-1.177c-0,-0.725 0.349,-1.085 1.462,-1.085c0.396,-0 0.791,0.045 1.177,0.133l-0.091,0.745c-0.338,-0.063 -0.679,-0.101 -1.023,-0.114c-0.431,-0 -0.502,0.09 -0.502,0.325c-0,0.236 -0,0.326 0.553,0.452c1.094,0.274 1.196,0.419 1.196,1.176c-0,0.757 -0.325,1.157 -1.502,1.157l-0.023,0.039Zm-3.07,-1.494l-0.663,-0c-0.318,-0 -0.392,0.082 -0.392,0.368c-0,0.287 0.09,0.392 0.392,0.392c0.258,-0.003 0.511,-0.071 0.737,-0.196l-0.074,-0.564Zm1.027,1.411l-0.784,-0l-0.071,-0.274c-0.353,0.217 -0.761,0.33 -1.176,0.325c-0.718,-0 -1.024,-0.47 -1.024,-1.113c-0,-0.643 0.349,-1.024 1.138,-1.024l0.94,-0l-0,-0.392c-0,-0.419 -0.121,-0.56 -0.745,-0.56c-0.364,0.002 -0.728,0.041 -1.086,0.113l-0.121,-0.717c0.447,-0.122 0.909,-0.184 1.372,-0.185c1.227,-0 1.569,0.42 1.569,1.349l-0.012,2.478Zm-4.706,-0l-0,-2.168l-1.96,-0l-0,2.156l-1.027,-0l-0,-5.183l1.023,-0l-0,2.18l1.961,-0l-0,-2.18l1.023,-0l-0,5.195l-1.02,-0Z" style="fill-rule:nonzero;"/><path d="M27.514,127.784l-4.093,-0l-0,7.313l4.093,-0c2.29,-0 2.968,-0.839 2.968,-2.607l-0,-2.157c-0.043,-1.773 -0.781,-2.549 -2.968,-2.549m-8.183,-3.568l8.368,-0c4.96,-0 6.791,2.047 6.791,5.799l-0,2.925c-0,3.733 -2.047,5.761 -6.988,5.761l-4.081,-0l-0,6.955l-4.09,-0l-0,-21.44Z" style="fill-rule:nonzero;"/><path d="M44.296,139.736l-2.914,-0c-1.289,-0 -1.646,0.356 -1.646,1.545c-0,1.188 0.357,1.568 1.568,1.568c1.045,-0.012 2.07,-0.292 2.976,-0.812l0.016,-2.301Zm3.921,5.92l-3.223,-0l-0.286,-1.023c-1.39,0.901 -3.01,1.381 -4.666,1.38c-2.863,-0 -4.09,-1.96 -4.09,-4.666c-0,-3.192 1.38,-4.407 4.572,-4.407l3.764,-0l-0,-1.647c-0,-1.737 -0.482,-2.352 -2.995,-2.352c-1.462,0.011 -2.919,0.169 -4.349,0.47l-0.482,-2.995c1.748,-0.499 3.554,-0.763 5.372,-0.784c4.928,-0 6.371,1.736 6.371,5.665l0.012,10.359Z" style="fill-rule:nonzero;"/><path d="M50.557,139.959l0,-4.286c0,-4.214 1.831,-6.026 6.76,-6.026c1.3,0.009 2.591,0.206 3.835,0.584l-0.483,3.223c-1.065,-0.264 -2.156,-0.405 -3.254,-0.419c-2.251,-0 -2.925,0.674 -2.925,2.607l0,4.349c0,1.932 0.674,2.607 2.925,2.607c1.098,-0.005 2.191,-0.146 3.254,-0.42l0.483,3.223c-1.242,0.387 -2.534,0.584 -3.835,0.585c-4.917,-0.004 -6.76,-1.816 -6.76,-6.027" style="fill-rule:nonzero;"/><path d="M76.97,129.972l-4.603,7.764l4.794,7.916l-4.312,-0l-4.736,-7.916l4.481,-7.764l4.376,-0Zm-13.332,15.684l-0,-22.087l3.922,-0.553l-0,22.636l-3.922,0.004Z" style="fill-rule:nonzero;"/><path d="M82.067,136.155l4.991,0l0,-0.784c0,-1.483 -0.45,-2.518 -2.384,-2.518c-1.933,0 -2.607,1.039 -2.607,2.518l0,0.784Zm3.074,6.603c1.627,-0.001 3.244,-0.245 4.799,-0.722l0.616,2.969c-1.848,0.675 -3.801,1.022 -5.768,1.023c-4.929,0 -6.627,-2.29 -6.627,-6.054l0,-4.172c0,-3.313 1.483,-6.136 6.506,-6.136c5.023,0 6.136,2.925 6.136,6.313l0,3.344l-8.736,0l0,0.808c0,1.905 0.682,2.627 3.074,2.627" style="fill-rule:nonzero;"/><path d="M101.304,133.258c-1.442,0.655 -2.829,1.42 -4.153,2.29l0.001,10.104l-3.921,-0l-0,-15.684l3.313,-0l0.255,1.737c1.269,-0.851 2.644,-1.532 4.089,-2.027l0.416,3.58Z" style="fill-rule:nonzero;"/><path d="M36.117,38.396l25.663,14.83l-0,54.674l-25.664,-14.821l0.001,-54.683Z" style="fill:#1daeff;fill-rule:nonzero;"/><path d="M74.484,44.795l-27.894,-16.076l-0,11.159l18.966,10.956l-0,33.478l8.928,5.097c5.525,3.192 10.046,1.278 10.046,-4.247l-0,-24.53c-0,-5.524 -4.521,-12.653 -10.046,-15.837" style="fill:#1d94dd;fill-rule:nonzero;"/><path d="M223.845,306.685c0,1.998 -1.619,3.618 -3.618,3.618c-1.998,-0 -3.617,-1.62 -3.617,-3.618c-0,-1.998 1.619,-3.618 3.617,-3.618c1.999,-0 3.618,1.62 3.618,3.618" style="fill:#732cc7;fill-rule:nonzero;"/><path d="M223.845,351.673c0,1.997 -1.619,3.618 -3.618,3.618c-1.998,-0 -3.617,-1.621 -3.617,-3.618c0,-1.998 1.619,-3.618 3.617,-3.618c1.999,-0 3.618,1.62 3.618,3.618" style="fill:#732cc7;fill-rule:nonzero;"/><path d="M223.845,397.822c0,1.998 -1.619,3.618 -3.618,3.618c-1.998,-0 -3.617,-1.62 -3.617,-3.618c0,-1.998 1.619,-3.618 3.617,-3.618c1.999,-0 3.618,1.62 3.618,3.618" style="fill:#732cc7;fill-rule:nonzero;"/><path d="M505.316,303.897c-0,1.998 -1.62,3.618 -3.618,3.618c-1.998,0 -3.617,-1.62 -3.617,-3.618c-0,-1.998 1.619,-3.618 3.617,-3.618c1.998,0 3.618,1.62 3.618,3.618" style="fill:#732cc7;fill-rule:nonzero;"/><path d="M505.316,329.945c-0,1.997 -1.62,3.618 -3.618,3.618c-1.998,-0 -3.617,-1.621 -3.617,-3.618c-0,-1.998 1.619,-3.618 3.617,-3.618c1.998,-0 3.618,1.62 3.618,3.618" style="fill:#732cc7;fill-rule:nonzero;"/><path d="M505.316,354.548c-0,1.997 -1.62,3.618 -3.618,3.618c-1.998,-0 -3.617,-1.621 -3.617,-3.618c-0,-1.998 1.619,-3.618 3.617,-3.618c1.998,-0 3.618,1.62 3.618,3.618" style="fill:#732cc7;fill-rule:nonzero;"/><path d="M505.316,379.851c-0,1.998 -1.62,3.618 -3.618,3.618c-1.998,0 -3.617,-1.62 -3.617,-3.618c-0,-1.998 1.619,-3.618 3.617,-3.618c1.998,0 3.618,1.62 3.618,3.618" style="fill:#732cc7;fill-rule:nonzero;"/><path d="M83.845,358.23l-47.057,-0c-5.408,-0 -9.809,4.399 -9.809,9.81l0,47.054c0,5.408 4.401,9.81 9.809,9.81l47.057,-0c5.408,-0 9.808,-4.402 9.808,-9.81l0,-47.054c0,-5.411 -4.4,-9.81 -9.808,-9.81m6.765,56.864c0,3.732 -3.035,6.767 -6.765,6.767l-47.057,-0c-3.731,-0 -6.766,-3.035 -6.766,-6.767l0,-47.054c0,-3.732 3.035,-6.767 6.766,-6.767l47.057,-0c3.73,-0 6.765,3.035 6.765,6.767l0,47.054Zm-6.432,-46.259l-47.723,-0c-0.841,-0 -1.521,0.681 -1.521,1.521l0,15.908c0,0.84 0.68,1.522 1.521,1.522l47.723,-0c0.84,-0 1.521,-0.682 1.521,-1.522l0,-15.908c0,-0.84 -0.681,-1.521 -1.521,-1.521m-30.293,15.908l12.866,-0l0,-12.865l-12.866,-0l0,12.865Zm-15.909,-0l12.866,-0l-0,-12.865l-12.866,-0l-0,12.865Zm31.817,-0l12.864,-0l-0,-12.865l-12.864,-0l-0,12.865Zm14.385,7.954l-47.723,-0c-0.841,-0 -1.521,0.681 -1.521,1.52l-0,19.885c-0,0.84 0.68,1.522 1.521,1.522l47.723,-0c0.84,-0 1.521,-0.682 1.521,-1.522l-0,-19.885c-0,-0.839 -0.681,-1.52 -1.521,-1.52m-30.293,19.885l12.866,-0l0,-16.843l-12.866,-0l0,16.843Zm-15.909,-0l12.866,-0l-0,-16.843l-12.866,-0l-0,16.843Zm31.817,-0l12.864,-0l-0,-16.843l-12.864,-0l-0,16.843Z" style="fill:#d45b07;"/><rect x="761.739" y="38.396" width="81.905" height="81.904" style="fill:url(#_Linear1);"/><path d="M829.308,93.681l-5.157,0l-20.17,-42.415c-0.169,-0.356 -0.53,-0.585 -0.928,-0.585l-17.87,0c-0.565,0 -1.025,0.458 -1.026,1.023l-0.012,12.286c-0,0.272 0.106,0.532 0.301,0.725c0.192,0.192 0.452,0.299 0.725,0.299l8.644,0l20.264,42.417c0.17,0.356 0.529,0.583 0.925,0.583l14.304,0c0.567,0 1.026,-0.458 1.026,-1.023l-0,-12.286c-0,-0.565 -0.459,-1.024 -1.026,-1.024m-1.025,12.286l-12.631,0l-20.263,-42.416c-0.17,-0.357 -0.53,-0.584 -0.927,-0.584l-8.263,0l0.008,-10.238l16.198,0l20.17,42.415c0.169,0.356 0.53,0.585 0.926,0.585l4.782,0l-0,10.238Zm-35.604,-32.196c-0.173,-0.353 -0.532,-0.577 -0.924,-0.577l-0.003,0c-0.395,0.001 -0.755,0.227 -0.923,0.582l-15.679,32.773c-0.153,0.318 -0.131,0.69 0.058,0.988c0.187,0.297 0.515,0.477 0.868,0.477l14.988,0c0.396,0 0.757,-0.228 0.928,-0.585l8.206,-17.303c0.132,-0.28 0.131,-0.605 -0.005,-0.883l-7.514,-15.472Zm-2.265,32.196l-12.712,0l14.059,-29.388l6.371,13.116l-7.718,16.272Z" style="fill:#fff;"/><path d="M276.1,217.508l-1.64,-1.64l6.482,-6.482c0.454,-0.453 1.187,-0.453 1.64,-0l6.484,6.482l-1.64,1.64l-4.5,-4.5l0,9.421l-2.32,-0l0,-9.426l-4.506,4.505Zm6.826,38.79l0,-9.422l-2.32,-0l0,9.426l-4.506,-4.505l-1.64,1.64l6.482,6.482c0.227,0.226 0.524,0.34 0.821,0.34c0.296,-0 0.593,-0.114 0.819,-0.34l6.484,-6.482l-1.64,-1.64l-4.5,4.501Zm6.877,-28.918l2.147,-0l0,2.319l-1.896,-0l0,1.756l1.896,-0l0,2.319l-1.896,-0l0,1.756l1.896,-0l0,2.319l-1.896,-0l0,1.756l1.896,-0l0,2.319l-2.147,-0c-0.18,0.324 -0.444,0.588 -0.767,0.768l0,2.146l-2.32,-0l0,-1.896l-1.754,-0l0,1.896l-2.32,-0l0,-1.896l-1.755,-0l0,1.896l-2.319,-0l0,-1.896l-1.755,-0l0,1.896l-2.319,-0l0,-2.146c-0.324,-0.18 -0.588,-0.444 -0.768,-0.768l-2.147,-0l0,-2.319l1.896,-0l0,-1.756l-1.896,-0l0,-2.319l1.896,-0l0,-1.756l-1.896,-0l0,-2.319l1.896,-0l0,-1.756l-1.896,-0l0,-2.319l2.147,-0c0.18,-0.324 0.444,-0.588 0.768,-0.768l0,-2.145l2.319,-0l0,1.895l1.755,-0l0,-1.895l2.319,-0l0,1.895l1.755,-0l0,-1.895l2.32,-0l0,1.895l1.754,-0l0,-1.895l2.32,-0l0,2.145c0.323,0.18 0.587,0.444 0.767,0.768m-14.011,13.244l11.942,-0l0,-11.943l-11.942,-0l0,11.943Zm-13.003,-13.204l-1.639,1.639l4.433,4.433l-9.284,-0l0,2.32l9.424,-0l-4.573,4.572l1.639,1.64l6.483,-6.481c0.452,-0.454 0.452,-1.188 0,-1.64l-6.483,-6.483Zm44.441,6.072l-9.286,-0l4.432,-4.433l-1.64,-1.639l-6.481,6.483c-0.453,0.452 -0.453,1.186 0,1.64l6.481,6.481l1.64,-1.64l-4.572,-4.572l9.426,-0l0,-2.32Z" style="fill:#d45b07;"/><text x="596.649px" y="54.649px" style="font-family:'ArialMT', 'Arial', sans-serif;font-size:18px;">status</text><text x="608.157px" y="85.592px" style="font-family:'ArialMT', 'Arial', sans-serif;font-size:18px;">start</text><text x="608.649px" y="114.534px" style="font-family:'ArialMT', 'Arial', sans-serif;font-size:18px;">stop</text></g><defs><linearGradient id="_Linear1" x1="0" y1="0" x2="1" y2="0" gradientUnits="userSpaceOnUse" gradientTransform="matrix(81.9041,-81.9041,-81.9041,-81.9041,761.74,120.3)"><stop offset="0" style="stop-color:#c8511b;stop-opacity:1"/><stop offset="1" style="stop-color:#f90;stop-opacity:1"/></linearGradient></defs></svg>