<?xml version="1.0" standalone="no"?>
<!DOCTYPE svg PUBLIC "-//W3C//DTD SVG 20010904//EN"
 "http://www.w3.org/TR/2001/REC-SVG-20010904/DTD/svg10.dtd">
<svg version="1.0" xmlns="http://www.w3.org/2000/svg"
 width="512.000000pt" height="512.000000pt" viewBox="0 0 512.000000 512.000000"
 preserveAspectRatio="xMidYMid meet">
<metadata>
Created by potrace 1.14, written by Peter Selinger 2001-2017
</metadata>
<g transform="translate(0.000000,512.000000) scale(0.100000,-0.100000)"
fill="#000000" stroke="none">
<path d="M845 4300 l-30 -5 0 -1732 c1 -953 4 -1735 8 -1739 8 -8 909 -8 1102
1 154 6 280 14 315 20 14 2 61 9 106 15 137 18 214 38 321 83 507 214 852 745
900 1382 44 582 -100 1073 -428 1461 -62 73 -110 120 -204 197 -50 41 -166
113 -230 142 -120 55 -312 111 -453 130 -20 3 -46 8 -57 10 -11 2 -47 7 -80
10 -33 4 -73 8 -90 10 -107 14 -1110 27 -1180 15z m1011 -644 c60 -4 121 -8
134 -11 13 -3 42 -7 65 -10 83 -12 230 -56 310 -94 103 -48 155 -84 232 -158
210 -202 315 -504 307 -885 -1 -75 -5 -150 -8 -165 -3 -15 -8 -46 -11 -68 -31
-227 -140 -446 -294 -589 -44 -42 -153 -116 -169 -116 -5 0 -22 -7 -38 -14
-32 -17 -189 -53 -256 -60 -24 -3 -71 -8 -105 -11 -67 -8 -521 -14 -538 -8 -7
2 -10 360 -10 1095 0 1020 1 1091 17 1097 20 7 209 5 364 -3z"/>
<path d="M3990 1736 c-98 -17 -188 -65 -263 -141 -107 -108 -149 -217 -143
-374 5 -144 48 -241 153 -345 155 -154 406 -185 602 -73 55 31 155 135 189
197 88 157 80 370 -20 515 -120 175 -312 257 -518 221z"/>
</g>
</svg>
