<svg xmlns="http://www.w3.org/2000/svg" width="23" height="30" viewBox="0 0 23 30"><path fill-rule="evenodd" d="M11.5 22.5c-6.083 0-9.818-1.82-9.818-3.125v-2.922c1.958 1.501 5.97 2.297 9.818 2.297 3.849 0 7.86-.796 9.818-2.297v2.922c0 1.305-3.735 3.125-9.818 3.125zm0-21.25c6.083 0 9.818 1.82 9.818 3.125S17.583 7.5 11.5 7.5 1.682 5.68 1.682 4.375 5.417 1.25 11.5 1.25zm9.818 8.125c0 1.305-3.735 3.125-9.818 3.125s-9.818-1.82-9.818-3.125V6.452C3.64 7.954 7.652 8.75 11.5 8.75c3.849 0 7.86-.796 9.818-2.298v2.923zm0 5c0 1.305-3.735 3.125-9.818 3.125s-9.818-1.82-9.818-3.125v-2.922c1.958 1.501 5.97 2.297 9.818 2.297 3.849 0 7.86-.796 9.818-2.297v2.922zM11.5 0C6.145 0 .455 1.533.455 4.375v15c0 2.733 5.265 4.252 10.431 4.364v5.011H3.523a.62.62 0 0 0-.614.625.62.62 0 0 0 .614.625h15.954a.62.62 0 0 0 .614-.625.62.62 0 0 0-.614-.625h-7.363v-5.011c5.166-.112 10.431-1.63 10.431-4.364v-15C22.545 1.533 16.855 0 11.5 0z"></path></svg>