<svg xmlns="http://www.w3.org/2000/svg" width="31" height="30" viewBox="0 0 31 30"><g fill="#231F20" fill-rule="evenodd"><path d="M25.651 11.234h2.5v17.277h-2.5V11.234zm-7.5 4.936h2.5v12.34h-2.5V16.17zm-7.5 4.936h2.5v7.405h-2.5v-7.405zm-7.5 4.937h2.5v2.468h-2.5v-2.468zm26.875 2.468h-.625V10.617a.62.62 0 0 0-.625-.617h-3.75a.62.62 0 0 0-.625.617v17.894h-2.5V15.553a.62.62 0 0 0-.625-.617h-3.75a.62.62 0 0 0-.625.617v12.958h-2.5v-8.022a.62.62 0 0 0-.625-.617h-3.75a.62.62 0 0 0-.625.617v8.022h-2.5v-3.085a.62.62 0 0 0-.625-.617h-3.75a.62.62 0 0 0-.625.617v3.085h-.625a.62.62 0 0 0-.625.617c0 .34.28.617.625.617h28.75a.62.62 0 0 0 .625-.617.62.62 0 0 0-.625-.617zM4.277 16.625c.119 0 .24-.034.346-.104L25.988 2.46l-.457 3.636a.619.619 0 0 0 .621.693c.311 0 .58-.229.62-.541l.624-4.971c.004-.03-.005-.059-.006-.088 0-.043 0-.086-.01-.129-.01-.04-.03-.076-.047-.115-.014-.029-.018-.06-.037-.087-.004-.007-.011-.01-.016-.017-.005-.007-.007-.015-.012-.021-.02-.028-.052-.044-.077-.066-.03-.028-.058-.057-.092-.078-.031-.019-.066-.028-.1-.04-.043-.016-.082-.035-.126-.041-.008-.001-.015-.006-.023-.007l-5-.583a.621.621 0 0 0-.694.54.619.619 0 0 0 .547.686l3.314.386L3.93 15.494a.612.612 0 0 0-.174.856c.12.179.32.275.521.275"></path></g></svg>