<svg xmlns="http://www.w3.org/2000/svg" width="33" height="32" viewBox="0 0 33 32"><path fill-rule="evenodd" d="M29.833 20.667a1.335 1.335 0 0 1-1.333-1.334 1.335 1.335 0 0 1 2.667 0c0 .736-.598 1.334-1.334 1.334m-11.335-2A4.672 4.672 0 0 1 13.831 14a4.672 4.672 0 0 1 4.667-4.667A4.672 4.672 0 0 1 23.165 14a4.672 4.672 0 0 1-4.667 4.667m1.333 10.666c0 .736-.598 1.334-1.333 1.334a1.335 1.335 0 0 1-1.333-1.334c0-.735.598-1.333 1.333-1.333s1.333.598 1.333 1.333M3.167 30.667a1.335 1.335 0 0 1-1.334-1.334 1.335 1.335 0 0 1 2.667 0c0 .736-.598 1.334-1.333 1.334M29.833 1.333a1.335 1.335 0 0 1 0 2.667A1.335 1.335 0 0 1 28.5 2.667c0-.736.598-1.334 1.333-1.334M3.167 8.667a1.335 1.335 0 0 1-1.334-1.333 1.335 1.335 0 0 1 2.667 0c0 .735-.598 1.333-1.333 1.333m26.666 8a2.66 2.66 0 0 0-2.219 1.193l-3.606-1.49a5.966 5.966 0 0 0-.82-6.102l5.3-5.313c.396.235.852.378 1.345.378A2.67 2.67 0 0 0 32.5 2.667 2.67 2.67 0 0 0 29.833 0a2.67 2.67 0 0 0-2.666 2.667c0 .492.143.949.377 1.346l-5.298 5.309A5.97 5.97 0 0 0 18.498 8a6.002 6.002 0 0 0-5.213 3.041L5.783 7.827c.03-.16.05-.324.05-.493a2.67 2.67 0 0 0-2.666-2.667A2.67 2.67 0 0 0 .5 7.334a2.67 2.67 0 0 0 2.667 2.667 2.65 2.65 0 0 0 2.04-.971l7.549 3.234a5.97 5.97 0 0 0 1.069 5.49l-9.312 9.29a2.637 2.637 0 0 0-1.346-.377A2.67 2.67 0 0 0 .5 29.333 2.67 2.67 0 0 0 3.167 32a2.67 2.67 0 0 0 2.666-2.667c0-.493-.144-.95-.378-1.346l9.316-9.294a5.966 5.966 0 0 0 3.06 1.268v6.8a2.664 2.664 0 0 0-2 2.572A2.67 2.67 0 0 0 18.498 32a2.67 2.67 0 0 0 2.667-2.667 2.664 2.664 0 0 0-2-2.572v-6.8a5.993 5.993 0 0 0 4.17-2.426l3.852 1.591c-.005.07-.02.137-.02.207A2.67 2.67 0 0 0 29.833 22a2.67 2.67 0 0 0 2.667-2.667 2.67 2.67 0 0 0-2.667-2.666"></path></svg>