<svg xmlns="http://www.w3.org/2000/svg" width="30" height="30" viewBox="0 0 30 30"><path fill="#231F20" fill-rule="evenodd" d="M25.926 14.051a7.34 7.34 0 0 1-5.25 2.194 7.405 7.405 0 0 1-3.388-.822.616.616 0 0 0-.72.115L4.405 27.81c-.701.708-1.922.708-2.624 0a1.862 1.862 0 0 1-.542-1.324 1.88 1.88 0 0 1 .548-1.327l12.176-12.272a.63.63 0 0 0 .114-.727 7.527 7.527 0 0 1 1.386-8.716A7.39 7.39 0 0 1 20.75 1.25a7.49 7.49 0 0 1 2.62.473l-3.38 3.495a.627.627 0 0 0-.176.436v3.51c0 .345.277.625.62.625h3.3a.616.616 0 0 0 .438-.182l3.465-3.484a7.533 7.533 0 0 1-1.712 7.928m2.464-9.298a.618.618 0 0 0-.988-.159L23.479 8.54h-2.425V5.91l3.825-3.958a.63.63 0 0 0-.16-.993A8.69 8.69 0 0 0 20.748 0c-2.336 0-4.526.91-6.162 2.56a8.783 8.783 0 0 0-1.81 9.756L.911 24.275A3.125 3.125 0 0 0 0 26.483a3.11 3.11 0 0 0 .905 2.21 3.06 3.06 0 0 0 2.188.916 3.06 3.06 0 0 0 2.188-.915l11.853-11.96a8.658 8.658 0 0 0 3.542.761c2.315 0 4.49-.909 6.126-2.56A8.792 8.792 0 0 0 28.39 4.752"></path></svg>